<svg xmlns="http://www.w3.org/2000/svg" xmlns:xlink="http://www.w3.org/1999/xlink" width="40" zoomAndPan="magnify" viewBox="0 0 30 30.000001" height="40" preserveAspectRatio="xMidYMid meet" version="1.0"><defs><clipPath id="488f6d178f"><path d="M 0.484375 0 L 29.515625 0 L 29.515625 29.03125 L 0.484375 29.03125 Z M 0.484375 0 " clip-rule="nonzero"/></clipPath><clipPath id="0c83cc96f6"><path d="M 7.378906 5.222656 L 24.074219 5.222656 L 24.074219 25.542969 L 7.378906 25.542969 Z M 7.378906 5.222656 " clip-rule="nonzero"/></clipPath></defs><g clip-path="url(#488f6d178f)"><path fill="#ffffff" d="M 0.484375 0 L 29.515625 0 L 29.515625 29.03125 L 0.484375 29.03125 Z M 0.484375 0 " fill-opacity="1" fill-rule="nonzero"/><path fill="#ffffff" d="M 0.484375 0 L 29.515625 0 L 29.515625 29.03125 L 0.484375 29.03125 Z M 0.484375 0 " fill-opacity="1" fill-rule="nonzero"/></g><g clip-path="url(#0c83cc96f6)"><path fill="#00d1ff" d="M 9.382812 7.332031 C 9.207031 7.332031 9.066406 7.472656 9.066406 7.648438 L 9.066406 21.136719 C 9.066406 21.3125 9.207031 21.453125 9.382812 21.453125 L 15.363281 21.453125 C 15.539062 21.453125 15.679688 21.3125 15.679688 21.136719 C 15.679688 20.960938 15.539062 20.820312 15.363281 20.820312 L 9.699219 20.820312 L 9.699219 7.964844 L 11.671875 7.964844 C 11.789062 8.210938 12.039062 8.382812 12.332031 8.382812 L 16.550781 8.382812 C 16.84375 8.382812 17.09375 8.210938 17.214844 7.964844 L 19.183594 7.964844 L 19.183594 16.34375 C 19.183594 16.519531 19.324219 16.660156 19.5 16.660156 C 19.671875 16.660156 19.816406 16.519531 19.816406 16.34375 L 19.816406 7.648438 C 19.816406 7.472656 19.671875 7.332031 19.5 7.332031 L 17.289062 7.332031 L 17.289062 6.277344 L 20.34375 6.277344 C 20.636719 6.277344 20.871094 6.507812 20.871094 6.804688 L 20.871094 16.34375 C 20.871094 16.519531 21.011719 16.660156 21.183594 16.660156 C 21.359375 16.660156 21.5 16.519531 21.5 16.34375 L 21.5 6.804688 C 21.5 6.164062 20.980469 5.644531 20.34375 5.644531 L 17.214844 5.644531 C 17.09375 5.394531 16.84375 5.222656 16.550781 5.222656 L 12.332031 5.222656 C 12.039062 5.222656 11.789062 5.394531 11.667969 5.644531 L 8.539062 5.644531 C 7.898438 5.644531 7.378906 6.164062 7.378906 6.804688 L 7.378906 21.980469 C 7.378906 22.621094 7.898438 23.140625 8.539062 23.140625 L 15.363281 23.140625 C 15.539062 23.140625 15.679688 22.996094 15.679688 22.824219 C 15.679688 22.648438 15.539062 22.507812 15.363281 22.507812 L 8.539062 22.507812 C 8.25 22.507812 8.011719 22.269531 8.011719 21.980469 L 8.011719 6.804688 C 8.011719 6.511719 8.25 6.277344 8.539062 6.277344 L 11.597656 6.277344 L 11.597656 7.332031 Z M 12.226562 5.960938 C 12.226562 5.902344 12.277344 5.855469 12.332031 5.855469 L 16.550781 5.855469 C 16.605469 5.855469 16.652344 5.902344 16.652344 5.957031 C 16.652344 5.960938 16.652344 5.960938 16.652344 5.960938 C 16.652344 5.964844 16.65625 5.964844 16.65625 5.96875 L 16.65625 7.640625 C 16.65625 7.644531 16.652344 7.644531 16.652344 7.648438 C 16.652344 7.707031 16.605469 7.753906 16.550781 7.753906 L 12.332031 7.753906 C 12.277344 7.753906 12.226562 7.703125 12.226562 7.648438 Z M 10.753906 10.46875 C 10.753906 10.292969 10.894531 10.152344 11.070312 10.152344 L 12.332031 10.152344 C 12.507812 10.152344 12.648438 10.292969 12.648438 10.46875 C 12.648438 10.644531 12.507812 10.785156 12.332031 10.785156 L 11.070312 10.785156 C 10.894531 10.785156 10.753906 10.644531 10.753906 10.46875 Z M 10.753906 12.15625 C 10.753906 11.980469 10.894531 11.839844 11.070312 11.839844 L 12.332031 11.839844 C 12.507812 11.839844 12.648438 11.980469 12.648438 12.15625 C 12.648438 12.328125 12.507812 12.46875 12.332031 12.46875 L 11.070312 12.46875 C 10.894531 12.46875 10.753906 12.328125 10.753906 12.15625 Z M 18.128906 13.839844 C 18.128906 14.015625 17.988281 14.15625 17.8125 14.15625 L 11.070312 14.15625 C 10.894531 14.15625 10.753906 14.015625 10.753906 13.839844 C 10.753906 13.664062 10.894531 13.523438 11.070312 13.523438 L 17.8125 13.523438 C 17.988281 13.523438 18.128906 13.664062 18.128906 13.839844 Z M 17.8125 15.84375 L 14.441406 15.84375 C 14.265625 15.84375 14.125 15.703125 14.125 15.527344 C 14.125 15.351562 14.265625 15.210938 14.441406 15.210938 L 17.8125 15.210938 C 17.988281 15.210938 18.128906 15.351562 18.128906 15.527344 C 18.128906 15.703125 17.988281 15.84375 17.8125 15.84375 Z M 17.378906 16.894531 C 17.554688 16.894531 17.695312 17.039062 17.695312 17.210938 C 17.695312 17.386719 17.554688 17.527344 17.378906 17.527344 L 14.441406 17.527344 C 14.265625 17.527344 14.125 17.386719 14.125 17.210938 C 14.125 17.039062 14.265625 16.894531 14.441406 16.894531 Z M 16.007812 18.898438 C 16.007812 19.074219 15.867188 19.214844 15.691406 19.214844 L 14.441406 19.214844 C 14.265625 19.214844 14.125 19.074219 14.125 18.898438 C 14.125 18.722656 14.265625 18.582031 14.441406 18.582031 L 15.691406 18.582031 C 15.867188 18.582031 16.007812 18.722656 16.007812 18.898438 Z M 18.128906 12.15625 C 18.128906 12.328125 17.988281 12.46875 17.8125 12.46875 L 13.589844 12.46875 C 13.414062 12.46875 13.273438 12.328125 13.273438 12.15625 C 13.273438 11.980469 13.414062 11.839844 13.589844 11.839844 L 13.703125 11.839844 L 13.703125 10.929688 C 13.703125 10.753906 13.84375 10.613281 14.019531 10.613281 C 14.195312 10.613281 14.335938 10.753906 14.335938 10.929688 L 14.335938 11.839844 L 15.390625 11.839844 L 15.390625 10.257812 C 15.390625 10.082031 15.53125 9.941406 15.707031 9.941406 C 15.878906 9.941406 16.023438 10.082031 16.023438 10.257812 L 16.023438 11.839844 L 17.078125 11.839844 L 17.078125 9.625 C 17.078125 9.449219 17.21875 9.308594 17.394531 9.308594 C 17.566406 9.308594 17.707031 9.449219 17.707031 9.625 L 17.707031 11.839844 L 17.8125 11.839844 C 17.988281 11.839844 18.128906 11.980469 18.128906 12.15625 Z M 11.476562 16.414062 L 11.476562 16.542969 C 11.476562 16.667969 11.5625 16.777344 11.683594 16.808594 L 12.359375 16.976562 C 12.761719 17.078125 13.046875 17.4375 13.046875 17.851562 L 13.046875 17.980469 C 13.046875 18.441406 12.703125 18.816406 12.261719 18.875 L 12.261719 19.15625 C 12.261719 19.332031 12.121094 19.472656 11.945312 19.472656 C 11.769531 19.472656 11.628906 19.332031 11.628906 19.15625 L 11.628906 18.875 C 11.1875 18.816406 10.84375 18.441406 10.84375 17.980469 C 10.84375 17.808594 10.988281 17.664062 11.160156 17.664062 C 11.335938 17.664062 11.476562 17.808594 11.476562 17.980469 C 11.476562 18.132812 11.601562 18.253906 11.75 18.253906 L 12.140625 18.253906 C 12.292969 18.253906 12.414062 18.132812 12.414062 17.980469 L 12.414062 17.851562 C 12.414062 17.726562 12.328125 17.621094 12.207031 17.589844 L 11.53125 17.421875 C 11.128906 17.320312 10.84375 16.960938 10.84375 16.542969 L 10.84375 16.414062 C 10.84375 15.957031 11.1875 15.582031 11.628906 15.523438 L 11.628906 15.269531 C 11.628906 15.09375 11.769531 14.953125 11.945312 14.953125 C 12.121094 14.953125 12.261719 15.09375 12.261719 15.269531 L 12.261719 15.523438 C 12.703125 15.582031 13.046875 15.957031 13.046875 16.414062 C 13.046875 16.589844 12.902344 16.730469 12.730469 16.730469 C 12.554688 16.730469 12.414062 16.589844 12.414062 16.414062 C 12.414062 16.265625 12.292969 16.144531 12.140625 16.144531 L 11.75 16.144531 C 11.601562 16.144531 11.476562 16.265625 11.476562 16.414062 Z M 23.996094 20.246094 L 23.121094 20.113281 C 23.117188 20.101562 23.113281 20.09375 23.109375 20.082031 L 23.632812 19.371094 C 23.726562 19.246094 23.714844 19.070312 23.601562 18.957031 L 22.597656 17.953125 C 22.488281 17.84375 22.3125 17.828125 22.1875 17.921875 L 21.476562 18.449219 C 21.464844 18.445312 21.453125 18.4375 21.441406 18.433594 L 21.3125 17.5625 C 21.289062 17.40625 21.15625 17.289062 21 17.289062 L 19.578125 17.289062 C 19.421875 17.289062 19.289062 17.40625 19.265625 17.5625 L 19.132812 18.433594 C 19.121094 18.4375 19.109375 18.445312 19.097656 18.449219 L 18.390625 17.921875 C 18.261719 17.828125 18.089844 17.84375 17.976562 17.953125 L 16.972656 18.957031 C 16.863281 19.070312 16.847656 19.246094 16.941406 19.371094 L 17.46875 20.082031 C 17.464844 20.09375 17.457031 20.101562 17.453125 20.113281 L 16.578125 20.246094 C 16.425781 20.269531 16.308594 20.402344 16.308594 20.558594 L 16.308594 21.980469 C 16.308594 22.136719 16.425781 22.269531 16.578125 22.292969 L 17.453125 22.421875 C 17.457031 22.433594 17.464844 22.445312 17.46875 22.457031 L 16.941406 23.167969 C 16.847656 23.292969 16.863281 23.46875 16.972656 23.578125 L 17.976562 24.585938 C 18.089844 24.695312 18.265625 24.707031 18.390625 24.613281 L 19.097656 24.089844 C 19.113281 24.09375 19.121094 24.097656 19.132812 24.105469 L 19.265625 24.976562 C 19.289062 25.132812 19.421875 25.246094 19.578125 25.246094 L 21 25.246094 C 21.15625 25.246094 21.289062 25.132812 21.3125 24.976562 L 21.441406 24.105469 C 21.453125 24.097656 21.464844 24.09375 21.476562 24.089844 L 22.1875 24.613281 C 22.3125 24.707031 22.488281 24.695312 22.597656 24.585938 L 23.601562 23.578125 C 23.714844 23.46875 23.726562 23.292969 23.632812 23.167969 L 23.109375 22.457031 C 23.113281 22.445312 23.117188 22.433594 23.121094 22.421875 L 23.996094 22.292969 C 24.152344 22.269531 24.265625 22.136719 24.265625 21.980469 L 24.265625 20.558594 C 24.265625 20.402344 24.152344 20.269531 23.996094 20.246094 Z M 23.632812 21.707031 L 22.84375 21.824219 C 22.726562 21.84375 22.628906 21.925781 22.59375 22.039062 C 22.554688 22.148438 22.511719 22.25 22.460938 22.355469 C 22.40625 22.460938 22.417969 22.585938 22.488281 22.683594 L 22.964844 23.324219 L 22.34375 23.945312 L 21.703125 23.46875 C 21.605469 23.398438 21.476562 23.386719 21.371094 23.441406 C 21.269531 23.492188 21.164062 23.535156 21.054688 23.574219 C 20.945312 23.609375 20.863281 23.707031 20.84375 23.824219 L 20.726562 24.613281 L 19.851562 24.613281 L 19.734375 23.824219 C 19.714844 23.707031 19.632812 23.609375 19.519531 23.574219 C 19.410156 23.535156 19.304688 23.492188 19.203125 23.441406 C 19.097656 23.386719 18.96875 23.398438 18.875 23.46875 L 18.230469 23.945312 L 17.613281 23.324219 L 18.085938 22.683594 C 18.160156 22.585938 18.167969 22.460938 18.117188 22.355469 C 18.066406 22.25 18.019531 22.144531 17.984375 22.035156 C 17.945312 21.925781 17.847656 21.84375 17.730469 21.824219 L 16.941406 21.707031 L 16.941406 20.832031 L 17.730469 20.714844 C 17.847656 20.695312 17.945312 20.613281 17.984375 20.5 C 18.019531 20.390625 18.066406 20.285156 18.117188 20.183594 C 18.167969 20.078125 18.160156 19.949219 18.085938 19.855469 L 17.613281 19.214844 L 18.230469 18.59375 L 18.875 19.066406 C 18.96875 19.140625 19.097656 19.148438 19.203125 19.097656 C 19.304688 19.046875 19.410156 19 19.519531 18.964844 C 19.632812 18.925781 19.714844 18.828125 19.734375 18.710938 L 19.851562 17.921875 L 20.726562 17.921875 L 20.84375 18.710938 C 20.863281 18.828125 20.945312 18.925781 21.054688 18.964844 C 21.164062 19 21.269531 19.046875 21.371094 19.097656 C 21.476562 19.148438 21.605469 19.140625 21.703125 19.066406 L 22.34375 18.59375 L 22.964844 19.214844 L 22.488281 19.855469 C 22.417969 19.949219 22.40625 20.078125 22.460938 20.183594 C 22.511719 20.285156 22.554688 20.390625 22.59375 20.5 C 22.628906 20.613281 22.726562 20.695312 22.84375 20.714844 L 23.632812 20.832031 Z M 20.289062 19.707031 C 19.425781 19.707031 18.726562 20.40625 18.726562 21.269531 C 18.726562 22.128906 19.425781 22.832031 20.289062 22.832031 C 21.148438 22.832031 21.851562 22.128906 21.851562 21.269531 C 21.851562 20.40625 21.148438 19.707031 20.289062 19.707031 Z M 20.289062 22.199219 C 19.773438 22.199219 19.359375 21.78125 19.359375 21.269531 C 19.359375 20.757812 19.773438 20.339844 20.289062 20.339844 C 20.800781 20.339844 21.21875 20.757812 21.21875 21.269531 C 21.21875 21.78125 20.800781 22.199219 20.289062 22.199219 Z M 20.289062 22.199219 " fill-opacity="1" fill-rule="nonzero"/></g></svg>